<svg width="379" height="74" viewBox="0 0 379 74" fill="none" xmlns="http://www.w3.org/2000/svg">
<g clip-path="url(#clip0_3_102)">
<path d="M51.4355 39.5815C52.5944 44.5033 56.9744 48.1861 62.2066 48.1861C68.3165 48.1861 73.2845 43.1696 73.2845 37.0001C73.2845 30.8305 68.3165 25.814 62.2066 25.814C56.9829 25.814 52.5944 29.4968 51.4355 34.4187H47.4048C47.1321 33.2484 46.672 32.147 46.0584 31.1489L56.4035 20.7029C58.0907 21.7526 60.0762 22.3722 62.1981 22.3722C68.3079 22.3722 73.2759 17.3556 73.2759 11.1861C73.2759 5.01657 68.3165 5.97294e-05 62.2066 5.97294e-05C56.0967 5.97294e-05 51.1287 5.01657 51.1287 11.1861C51.1287 13.3373 51.7422 15.3422 52.7904 17.0545L42.4453 27.4919C41.4569 26.8724 40.3576 26.4077 39.1901 26.1238V22.0538C44.0644 20.8835 47.7116 16.4608 47.7116 11.1775C47.7116 5.00797 42.7436 -0.00854492 36.6337 -0.00854492C30.5238 -0.00854492 25.5558 5.00797 25.5558 11.1775C25.5558 16.4522 29.203 20.8835 34.0773 22.0538V26.1238C32.9098 26.3991 31.8191 26.8638 30.8306 27.4833L20.4856 17.0373C21.5337 15.3335 22.1472 13.3287 22.1472 11.1775C22.1558 5.01657 17.1878 5.97294e-05 11.0779 5.97294e-05C4.96801 5.97294e-05 0 5.01657 0 11.1861C0 17.3556 4.96801 22.3722 11.0779 22.3722C13.2082 22.3722 15.1937 21.7526 16.881 20.6942L27.226 31.1403C26.6125 32.1384 26.1523 33.2398 25.8796 34.4187H21.849C20.6901 29.4968 16.3101 25.814 11.0779 25.814C4.96801 25.814 0 30.8305 0 37.0001C0 43.1696 4.96801 48.1861 11.0779 48.1861C16.3015 48.1861 20.6901 44.5033 21.849 39.5815H25.8796C26.1609 40.7603 26.621 41.8617 27.2346 42.8684L16.898 53.3145C15.2023 52.2561 13.2168 51.6366 11.0864 51.6366C4.97653 51.6366 0.00852145 56.6531 0.00852145 62.8226C0.00852145 68.9922 4.97653 74.0087 11.0864 74.0087C17.1963 74.0087 22.1643 68.9922 22.1643 62.8226C22.1643 60.6715 21.5507 58.6752 20.5111 56.9715L30.8562 46.5254C31.8447 47.1449 32.9354 47.6096 34.0943 47.8849V51.9549C29.22 53.1252 25.5729 57.548 25.5729 62.8312C25.5729 69.0008 30.5409 74.0173 36.6508 74.0173C42.7606 74.0173 47.7286 69.0008 47.7286 62.8312C47.7286 57.5566 44.0815 53.1252 39.2072 51.9549V47.8849C40.3746 47.6096 41.4654 47.1363 42.4539 46.5168L52.7989 56.9628C51.7508 58.6666 51.1372 60.6715 51.1372 62.8226C51.1372 68.9922 56.1052 74.0087 62.2151 74.0087C68.325 74.0087 73.293 68.9922 73.293 62.8226C73.293 56.6531 68.325 51.6366 62.2151 51.6366C60.0847 51.6366 58.0992 52.2561 56.412 53.3145L46.067 42.8684C46.6805 41.8703 47.1407 40.7689 47.4133 39.5901H51.444L51.4355 39.5815ZM62.2066 30.9768C65.4959 30.9768 68.1716 33.6787 68.1716 37.0001C68.1716 40.3215 65.4959 43.0233 62.2066 43.0233C58.9173 43.0233 56.2416 40.3215 56.2416 37.0087C56.2416 33.6873 58.9173 30.994 62.2066 30.994V30.9768ZM36.6422 43.0233C33.353 43.0233 30.6772 40.3215 30.6772 37.0087C30.6772 33.6873 33.353 30.994 36.6422 30.994C39.9315 30.994 42.6072 33.6959 42.6072 37.0173C42.6072 40.3387 39.9315 43.0405 36.6422 43.0405V43.0233ZM62.2066 5.16285C65.4959 5.16285 68.1716 7.86471 68.1716 11.1861C68.1716 14.5075 65.4959 17.2094 62.2066 17.2094C58.9173 17.2094 56.2416 14.5075 56.2416 11.1861C56.2416 7.86471 58.9173 5.16285 62.2066 5.16285ZM30.6772 11.1861C30.6772 7.86471 33.353 5.16285 36.6422 5.16285C39.9315 5.16285 42.6072 7.86471 42.6072 11.1861C42.6072 14.5075 39.9315 17.2094 36.6508 17.2094C33.3615 17.2094 30.6943 14.5075 30.6943 11.1861H30.6772ZM5.11287 11.1861C5.11287 7.86471 7.78861 5.16285 11.0779 5.16285C14.3672 5.16285 17.0429 7.86471 17.0429 11.1861C17.0429 14.5075 14.3672 17.2094 11.0779 17.2094C7.78861 17.2094 5.11287 14.5075 5.11287 11.1861ZM11.0779 43.0233C7.78861 43.0233 5.11287 40.3215 5.11287 37.0001C5.11287 33.6787 7.78861 30.9768 11.0779 30.9768C14.3672 30.9768 17.0429 33.6787 17.0429 37.0001C17.0429 40.3215 14.3672 43.0233 11.0779 43.0233ZM11.0779 68.8373C7.78861 68.8373 5.11287 66.1354 5.11287 62.814C5.11287 59.4926 7.78861 56.7908 11.0779 56.7908C14.3672 56.7908 17.0429 59.4926 17.0429 62.814C17.0429 66.1354 14.3672 68.8373 11.0779 68.8373ZM42.6072 62.814C42.6072 66.1354 39.9315 68.8373 36.6422 68.8373C33.353 68.8373 30.6772 66.1354 30.6772 62.814C30.6772 59.4926 33.353 56.7908 36.6422 56.7908C39.9315 56.7908 42.6072 59.4926 42.6072 62.814ZM68.1716 62.814C68.1716 66.1354 65.4959 68.8373 62.2066 68.8373C58.9173 68.8373 56.2416 66.1354 56.2416 62.814C56.2416 59.4926 58.9173 56.7908 62.2066 56.7908C65.4959 56.7908 68.1716 59.4926 68.1716 62.814Z" fill="#64B769"/>
<path d="M99.7861 51.2406C97.2212 51.2406 95.0823 50.8534 93.3525 50.0962C91.6311 49.3304 90.3188 48.3322 89.4241 47.0932C88.5293 45.8541 88.0521 44.5548 88.001 43.1867C88.001 42.9371 88.0862 42.7306 88.2481 42.5585C88.41 42.395 88.623 42.309 88.8702 42.309H92.5514C92.9093 42.309 93.182 42.3864 93.361 42.5413C93.5399 42.6962 93.7018 42.8855 93.8382 43.1092C94.0001 43.6341 94.3239 44.159 94.7926 44.6753C95.2613 45.1915 95.9004 45.6132 96.7184 45.9488C97.5365 46.2843 98.5591 46.4478 99.8032 46.4478C101.789 46.4478 103.271 46.1122 104.251 45.4411C105.231 44.7699 105.717 43.8664 105.717 42.7306C105.717 41.9218 105.453 41.2764 104.933 40.786C104.413 40.2955 103.604 39.8567 102.513 39.4522C101.422 39.0478 99.9821 38.6262 98.1926 38.1788C96.1219 37.6797 94.3921 37.0688 93.0031 36.3632C91.6141 35.6576 90.5659 34.7541 89.8587 33.6699C89.1599 32.5857 88.802 31.209 88.802 29.5397C88.802 27.8704 89.2366 26.4936 90.1058 25.2374C90.975 23.9811 92.2106 23.0002 93.8297 22.2688C95.4402 21.546 97.3661 21.1846 99.5987 21.1846C101.388 21.1846 102.973 21.4255 104.354 21.916C105.734 22.4064 106.876 23.0432 107.788 23.8348C108.7 24.6264 109.39 25.4783 109.876 26.3818C110.361 27.2853 110.617 28.1715 110.642 29.032C110.642 29.2557 110.566 29.4536 110.412 29.6343C110.259 29.815 110.046 29.9097 109.773 29.9097H105.93C105.709 29.9097 105.487 29.8581 105.265 29.7462C105.044 29.6343 104.865 29.4278 104.729 29.1181C104.567 28.2576 104.021 27.5176 103.118 26.9067C102.206 26.2957 101.039 25.986 99.6072 25.986C98.1756 25.986 96.9229 26.2613 96.0111 26.8206C95.0993 27.3799 94.6477 28.2404 94.6477 29.4106C94.6477 30.1936 94.8778 30.839 95.3294 31.3553C95.7811 31.8715 96.5139 32.319 97.5194 32.7148C98.525 33.102 99.8543 33.5236 101.507 33.9711C103.851 34.496 105.768 35.1155 107.259 35.8125C108.751 36.5095 109.833 37.3957 110.523 38.4627C111.213 39.5383 111.554 40.8892 111.554 42.5327C111.554 44.3655 111.06 45.9315 110.089 47.2308C109.109 48.5215 107.737 49.5197 105.973 50.2167C104.209 50.9136 102.155 51.2578 99.8117 51.2578L99.7861 51.2406Z" fill="white"/>
<path d="M122.036 51.2405C120.604 51.2405 119.309 50.9566 118.15 50.3801C116.991 49.8122 116.079 49.0463 115.397 48.0826C114.716 47.1189 114.383 46.0433 114.383 44.8473C114.383 42.9026 115.167 41.3452 116.744 40.1922C118.312 39.0391 120.365 38.2647 122.905 37.8775L128.572 37.0429V36.1652C128.572 34.995 128.282 34.0915 127.702 33.4547C127.123 32.818 126.134 32.491 124.728 32.491C123.731 32.491 122.93 32.6975 122.308 33.0933C121.686 33.4977 121.226 34.0312 120.919 34.7024C120.698 35.0638 120.382 35.2445 119.965 35.2445H116.701C116.394 35.2445 116.173 35.1584 116.019 34.995C115.866 34.8315 115.789 34.6077 115.789 34.3238C115.815 33.8763 116.002 33.3343 116.352 32.6975C116.693 32.0608 117.221 31.4412 117.92 30.8389C118.619 30.2366 119.539 29.7289 120.672 29.3159C121.806 28.8943 123.169 28.6877 124.762 28.6877C126.501 28.6877 127.967 28.9029 129.168 29.3331C130.37 29.7633 131.324 30.3398 132.04 31.0626C132.756 31.7854 133.284 32.6373 133.608 33.6096C133.94 34.5819 134.102 35.6145 134.102 36.6987V49.8122C134.102 50.0875 134.008 50.3284 133.812 50.5177C133.616 50.7157 133.386 50.8103 133.105 50.8103H129.756C129.449 50.8103 129.211 50.7157 129.032 50.5177C128.853 50.3198 128.759 50.0875 128.759 49.8122V48.1859C128.401 48.685 127.915 49.1754 127.31 49.6487C126.705 50.1219 125.964 50.5091 125.095 50.7931C124.226 51.0856 123.203 51.2319 122.01 51.2319L122.036 51.2405ZM123.433 47.2738C124.396 47.2738 125.274 47.0673 126.058 46.6457C126.842 46.224 127.464 45.5787 127.915 44.701C128.367 43.8233 128.597 42.7133 128.597 41.3796V40.5019L124.464 41.1731C122.837 41.4226 121.627 41.827 120.826 42.3863C120.025 42.9456 119.624 43.6254 119.624 44.4343C119.624 45.0452 119.812 45.5701 120.186 46.0003C120.561 46.4305 121.03 46.7489 121.61 46.964C122.189 47.1791 122.794 47.2738 123.425 47.2738H123.433Z" fill="white"/>
<path d="M151.307 51.2407C149.705 51.2407 148.375 50.9653 147.319 50.406C146.254 49.8467 145.384 49.1411 144.694 48.2807V49.8295C144.694 50.1049 144.6 50.3458 144.422 50.5351C144.243 50.733 144.004 50.8277 143.697 50.8277H140.433C140.161 50.8277 139.922 50.733 139.726 50.5351C139.53 50.3372 139.436 50.1049 139.436 49.8295V22.1742C139.436 21.8988 139.53 21.6579 139.726 21.4686C139.922 21.2707 140.152 21.176 140.433 21.176H143.944C144.251 21.176 144.49 21.2707 144.669 21.4686C144.848 21.6665 144.941 21.8988 144.941 22.1742V31.4414C145.632 30.6325 146.492 29.97 147.523 29.4537C148.554 28.9374 149.816 28.6793 151.307 28.6793C152.798 28.6793 154.034 28.9288 155.107 29.4279C156.181 29.927 157.084 30.6325 157.817 31.536C158.55 32.4395 159.104 33.4893 159.496 34.6853C159.879 35.8814 160.092 37.1807 160.118 38.566C160.144 39.0651 160.161 39.5211 160.161 39.9256C160.161 40.33 160.144 40.786 160.118 41.2851C160.058 42.7307 159.845 44.0644 159.453 45.269C159.07 46.4823 158.516 47.5321 157.8 48.4184C157.084 49.3132 156.19 50.0016 155.116 50.4835C154.042 50.9739 152.773 51.2149 151.315 51.2149L151.307 51.2407ZM149.782 46.7749C150.966 46.7749 151.886 46.5167 152.551 46.0004C153.216 45.4842 153.693 44.813 154 43.9784C154.306 43.1437 154.485 42.223 154.536 41.2249C154.562 40.3902 154.562 39.5556 154.536 38.7209C154.477 37.7142 154.298 36.8021 154 35.9674C153.693 35.1328 153.216 34.4616 152.551 33.9453C151.886 33.429 150.966 33.1709 149.782 33.1709C148.682 33.1709 147.779 33.4204 147.097 33.9195C146.407 34.4186 145.887 35.0553 145.529 35.8211C145.171 36.587 144.975 37.3872 144.95 38.2218C144.924 38.7209 144.907 39.263 144.907 39.8309C144.907 40.3988 144.924 40.9409 144.95 41.44C145.001 42.3004 145.188 43.1437 145.512 43.9697C145.828 44.7872 146.339 45.467 147.046 45.9918C147.745 46.5253 148.665 46.7835 149.799 46.7835L149.782 46.7749Z" fill="white"/>
<path d="M165.785 50.819C165.512 50.819 165.274 50.7244 165.078 50.5265C164.882 50.3286 164.788 50.0963 164.788 49.8209V22.1742C164.788 21.8988 164.882 21.6579 165.078 21.4686C165.274 21.2707 165.504 21.176 165.785 21.176H169.219C169.492 21.176 169.73 21.2707 169.926 21.4686C170.122 21.6665 170.216 21.8988 170.216 22.1742V49.8209C170.216 50.0963 170.122 50.3372 169.926 50.5265C169.73 50.7244 169.5 50.819 169.219 50.819H165.785Z" fill="white"/>
<path d="M184.967 51.2405C181.907 51.2405 179.479 50.3456 177.689 48.5645C175.9 46.7833 174.928 44.2536 174.792 40.9666C174.766 40.6912 174.749 40.3298 174.749 39.8996C174.749 39.4694 174.766 39.1252 174.792 38.8757C174.903 36.7589 175.38 34.9433 176.215 33.4289C177.059 31.9145 178.218 30.7443 179.709 29.9182C181.2 29.1008 182.947 28.6877 184.958 28.6877C187.191 28.6877 189.065 29.1524 190.582 30.0903C192.099 31.0196 193.241 32.3189 194.016 33.971C194.792 35.6317 195.175 37.5419 195.175 39.7103V40.588C195.175 40.8633 195.081 41.1043 194.886 41.2936C194.69 41.4915 194.442 41.5861 194.144 41.5861H180.416V41.9217C180.442 42.894 180.629 43.7975 180.979 44.615C181.319 45.441 181.831 46.095 182.512 46.6026C183.186 47.1017 183.995 47.3512 184.932 47.3512C185.708 47.3512 186.356 47.2308 186.875 46.9984C187.395 46.7661 187.83 46.4908 188.154 46.181C188.486 45.8712 188.716 45.6217 188.861 45.4324C189.108 45.0968 189.312 44.8989 189.457 44.8301C189.611 44.7612 189.832 44.7268 190.139 44.7268H193.693C193.965 44.7268 194.195 44.8129 194.374 44.9763C194.553 45.1398 194.63 45.355 194.604 45.6045C194.579 46.0519 194.349 46.594 193.923 47.2308C193.497 47.8675 192.883 48.4957 192.082 49.1066C191.281 49.7175 190.284 50.2252 189.082 50.6296C187.881 51.034 186.509 51.2319 184.967 51.2319V51.2405ZM180.416 38.084H189.551V37.955C189.551 36.8708 189.372 35.9157 189.014 35.0982C188.656 34.2808 188.128 33.6354 187.446 33.1794C186.765 32.7233 185.929 32.491 184.967 32.491C184.004 32.491 183.177 32.7233 182.487 33.1794C181.797 33.6354 181.277 34.2808 180.936 35.0982C180.595 35.9157 180.416 36.8708 180.416 37.955V38.084Z" fill="white"/>
<path d="M210.522 50.819C210.25 50.819 210.011 50.7244 209.815 50.5265C209.619 50.3286 209.525 50.0963 209.525 49.8209V22.6388C209.525 22.3291 209.619 22.0795 209.815 21.8902C210.011 21.6923 210.241 21.5977 210.522 21.5977H222.512C224.745 21.5977 226.568 21.9418 227.974 22.6216C229.38 23.3014 230.42 24.2393 231.093 25.4439C231.766 26.64 232.107 28.0339 232.107 29.6172C232.107 30.6756 231.92 31.6049 231.545 32.3965C231.17 33.1881 230.718 33.8335 230.181 34.3411C229.645 34.8402 229.116 35.236 228.588 35.5114C229.662 36.0104 230.616 36.8451 231.443 38.0153C232.269 39.1856 232.687 40.5795 232.687 42.1886C232.687 43.7977 232.312 45.3465 231.57 46.6544C230.829 47.9623 229.721 48.9863 228.264 49.7263C226.798 50.4663 225 50.8363 222.844 50.8363H210.522V50.819ZM215.277 33.5753H221.771C223.228 33.5753 224.327 33.2225 225.06 32.5084C225.793 31.7942 226.159 30.8735 226.159 29.7291C226.159 28.5846 225.793 27.6381 225.06 26.9756C224.327 26.3044 223.236 25.9688 221.771 25.9688H215.277V33.5667V33.5753ZM215.277 46.3963H222.18C223.671 46.3963 224.796 45.9832 225.571 45.1658C226.347 44.3484 226.73 43.3502 226.73 42.18C226.73 41.0097 226.338 39.9428 225.554 39.1339C224.77 38.3251 223.645 37.9207 222.18 37.9207H215.277V46.3963Z" fill="white"/>
<path d="M238.234 25.5213C237.961 25.5213 237.723 25.4266 237.527 25.2287C237.331 25.0308 237.237 24.7985 237.237 24.5231V21.5201C237.237 21.2448 237.331 21.0038 237.527 20.8145C237.723 20.6166 237.953 20.522 238.234 20.522H242.001C242.307 20.522 242.554 20.6166 242.742 20.8145C242.938 21.0124 243.032 21.2448 243.032 21.5201V24.5231C243.032 24.7985 242.938 25.0394 242.742 25.2287C242.546 25.4266 242.299 25.5213 242.001 25.5213H238.234ZM238.396 50.8189C238.123 50.8189 237.885 50.7243 237.697 50.5264C237.501 50.3285 237.408 50.0962 237.408 49.8208V30.1076C237.408 29.8322 237.501 29.5913 237.697 29.402C237.893 29.2041 238.123 29.1094 238.396 29.1094H241.83C242.137 29.1094 242.376 29.2041 242.555 29.402C242.733 29.5999 242.827 29.8322 242.827 30.1076V49.8208C242.827 50.0962 242.733 50.3371 242.555 50.5264C242.376 50.7243 242.137 50.8189 241.83 50.8189H238.396Z" fill="white"/>
<path d="M257.833 51.2405C255.626 51.2405 253.777 50.8533 252.269 50.0703C250.761 49.2873 249.619 48.1945 248.835 46.7747C248.051 45.355 247.599 43.7029 247.488 41.8098C247.463 41.3108 247.446 40.6998 247.446 39.9684C247.446 39.237 247.463 38.6347 247.488 38.127C247.599 36.2082 248.059 34.5389 248.877 33.1363C249.687 31.7338 250.846 30.641 252.354 29.858C253.854 29.075 255.686 28.6877 257.833 28.6877C259.981 28.6877 261.813 29.075 263.313 29.858C264.813 30.641 265.971 31.7338 266.789 33.1363C267.599 34.5389 268.068 36.2082 268.178 38.127C268.204 38.6261 268.221 39.237 268.221 39.9684C268.221 40.6998 268.204 41.3022 268.178 41.8098C268.068 43.7029 267.616 45.355 266.832 46.7747C266.048 48.1945 264.906 49.2959 263.398 50.0703C261.89 50.8447 260.041 51.2405 257.833 51.2405ZM257.833 47.1103C259.291 47.1103 260.424 46.6457 261.225 45.7077C262.026 44.7784 262.469 43.4017 262.546 41.5947C262.571 41.1731 262.588 40.631 262.588 39.9684C262.588 39.3059 262.571 38.7552 262.546 38.3422C262.461 36.5352 262.017 35.1584 261.225 34.2291C260.424 33.2998 259.291 32.8266 257.833 32.8266C256.376 32.8266 255.243 33.2912 254.442 34.2291C253.641 35.1584 253.198 36.5352 253.121 38.3422C253.096 38.7638 253.078 39.3059 253.078 39.9684C253.078 40.631 253.096 41.1817 253.121 41.5947C253.206 43.4017 253.641 44.7784 254.442 45.7077C255.243 46.637 256.368 47.1103 257.833 47.1103Z" fill="white"/>
<path d="M284.463 51.2405C281.898 51.2405 279.725 50.7844 277.953 49.881C276.172 48.9775 274.817 47.6782 273.879 46.0003C272.942 44.3137 272.414 42.2917 272.311 39.9254C272.286 38.781 272.269 37.5591 272.269 36.2512C272.269 34.9433 272.286 33.687 272.311 32.491C272.422 30.1505 272.951 28.137 273.905 26.4333C274.859 24.7382 276.223 23.4303 277.995 22.5268C279.776 21.6233 281.932 21.1672 284.463 21.1672C286.338 21.1672 288.016 21.4168 289.508 21.9158C290.999 22.4149 292.269 23.1033 293.308 23.981C294.356 24.8586 295.166 25.8826 295.745 27.0528C296.325 28.2231 296.632 29.4879 296.657 30.8561C296.683 31.1056 296.606 31.3121 296.427 31.4842C296.248 31.6477 296.035 31.7337 295.788 31.7337H291.86C291.553 31.7337 291.306 31.6563 291.118 31.5014C290.922 31.3465 290.786 31.0884 290.701 30.727C290.258 28.8856 289.499 27.6379 288.425 26.9668C287.352 26.2956 286.014 25.96 284.412 25.96C282.563 25.96 281.088 26.4849 279.989 27.5261C278.89 28.5672 278.293 30.2882 278.208 32.6803C278.123 34.9605 278.123 37.301 278.208 39.6931C278.293 42.0851 278.881 43.8061 279.989 44.8472C281.088 45.8884 282.563 46.4133 284.412 46.4133C286.014 46.4133 287.352 46.0691 288.442 45.3893C289.533 44.7096 290.283 43.4619 290.692 41.6549C290.777 41.2677 290.914 41.001 291.11 40.8633C291.306 40.7256 291.553 40.6568 291.851 40.6568H295.779C296.027 40.6568 296.24 40.7428 296.419 40.9063C296.598 41.0698 296.674 41.2849 296.649 41.5344C296.623 42.9026 296.316 44.1675 295.737 45.3377C295.157 46.5079 294.348 47.5319 293.3 48.4096C292.252 49.2872 290.982 49.9756 289.499 50.4747C288.016 50.9737 286.329 51.2233 284.454 51.2233L284.463 51.2405Z" fill="white"/>
<path d="M302.119 50.819C301.847 50.819 301.608 50.7244 301.412 50.5265C301.216 50.3286 301.122 50.0963 301.122 49.8209V22.1742C301.122 21.8988 301.216 21.6579 301.412 21.4686C301.608 21.2707 301.838 21.176 302.119 21.176H305.554C305.826 21.176 306.065 21.2707 306.261 21.4686C306.457 21.6665 306.551 21.8988 306.551 22.1742V49.8209C306.551 50.0963 306.457 50.3372 306.261 50.5265C306.065 50.7244 305.835 50.819 305.554 50.819H302.119Z" fill="white"/>
<path d="M312.874 25.5213C312.601 25.5213 312.362 25.4266 312.166 25.2287C311.97 25.0308 311.876 24.7985 311.876 24.5231V21.5201C311.876 21.2448 311.97 21.0038 312.166 20.8145C312.362 20.6166 312.592 20.522 312.874 20.522H316.64C316.947 20.522 317.194 20.6166 317.381 20.8145C317.577 21.0124 317.671 21.2448 317.671 21.5201V24.5231C317.671 24.7985 317.577 25.0394 317.381 25.2287C317.185 25.4266 316.938 25.5213 316.64 25.5213H312.874ZM313.035 50.8189C312.763 50.8189 312.524 50.7243 312.337 50.5264C312.141 50.3285 312.047 50.0962 312.047 49.8208V30.1076C312.047 29.8322 312.141 29.5913 312.337 29.402C312.533 29.2041 312.763 29.1094 313.035 29.1094H316.47C316.776 29.1094 317.015 29.2041 317.194 29.402C317.373 29.5999 317.467 29.8322 317.467 30.1076V49.8208C317.467 50.0962 317.373 50.3371 317.194 50.5264C317.015 50.7243 316.776 50.8189 316.47 50.8189H313.035Z" fill="white"/>
<path d="M323.951 50.8189C323.679 50.8189 323.44 50.7243 323.253 50.5264C323.057 50.3284 322.963 50.0961 322.963 49.8208V30.1075C322.963 29.8322 323.057 29.5912 323.253 29.4019C323.449 29.204 323.679 29.1094 323.951 29.1094H327.343C327.616 29.1094 327.854 29.204 328.05 29.4019C328.246 29.5998 328.34 29.8322 328.34 30.1075V31.8198C329.056 30.925 329.976 30.185 331.092 29.5826C332.209 28.9803 333.598 28.6877 335.251 28.6877C336.904 28.6877 338.395 29.075 339.631 29.8322C340.875 30.598 341.829 31.6736 342.503 33.0675C343.176 34.4615 343.517 36.1308 343.517 38.0754V49.8122C343.517 50.0875 343.423 50.3284 343.227 50.5177C343.031 50.7157 342.801 50.8103 342.52 50.8103H338.881C338.608 50.8103 338.37 50.7157 338.174 50.5177C337.978 50.3198 337.884 50.0875 337.884 49.8122V38.325C337.884 36.7073 337.492 35.4424 336.708 34.5217C335.924 33.601 334.782 33.145 333.299 33.145C331.817 33.145 330.717 33.601 329.865 34.5217C329.013 35.4424 328.587 36.7073 328.587 38.325V49.8122C328.587 50.0875 328.493 50.3284 328.297 50.5177C328.101 50.7157 327.871 50.8103 327.59 50.8103H323.951V50.8189Z" fill="white"/>
<path d="M349.592 25.5213C349.32 25.5213 349.081 25.4266 348.885 25.2287C348.689 25.0308 348.595 24.7985 348.595 24.5231V21.5201C348.595 21.2448 348.689 21.0038 348.885 20.8145C349.081 20.6166 349.311 20.522 349.592 20.522H353.359C353.666 20.522 353.913 20.6166 354.1 20.8145C354.296 21.0124 354.39 21.2448 354.39 21.5201V24.5231C354.39 24.7985 354.296 25.0394 354.1 25.2287C353.904 25.4266 353.657 25.5213 353.359 25.5213H349.592ZM349.754 50.8189C349.482 50.8189 349.243 50.7243 349.056 50.5264C348.86 50.3285 348.766 50.0962 348.766 49.8208V30.1076C348.766 29.8322 348.86 29.5913 349.056 29.402C349.252 29.2041 349.482 29.1094 349.754 29.1094H353.189C353.495 29.1094 353.734 29.2041 353.913 29.402C354.092 29.5999 354.186 29.8322 354.186 30.1076V49.8208C354.186 50.0962 354.092 50.3371 353.913 50.5264C353.734 50.7243 353.495 50.8189 353.189 50.8189H349.754Z" fill="white"/>
<path d="M368.987 51.2405C367.002 51.2405 365.255 50.8619 363.755 50.1133C362.255 49.3647 361.079 48.2719 360.244 46.835C359.401 45.398 358.94 43.6684 358.855 41.6377C358.83 41.2247 358.813 40.674 358.813 39.9857C358.813 39.2973 358.83 38.738 358.855 38.2905C358.94 36.2598 359.401 34.5217 360.244 33.0933C361.088 31.6563 362.255 30.5636 363.755 29.815C365.255 29.0663 367.002 28.6877 368.987 28.6877C370.751 28.6877 372.251 28.9287 373.495 29.4191C374.739 29.9096 375.753 30.5291 376.554 31.295C377.355 32.0608 377.952 32.8524 378.352 33.6784C378.753 34.4959 378.966 35.2445 378.991 35.9157C379.017 36.2254 378.932 36.4663 378.719 36.647C378.514 36.8277 378.267 36.9224 377.994 36.9224H374.356C374.083 36.9224 373.87 36.8536 373.717 36.7159C373.563 36.5782 373.418 36.3717 373.282 36.0877C372.865 34.9777 372.328 34.1861 371.646 33.7301C370.973 33.274 370.112 33.0417 369.064 33.0417C367.683 33.0417 366.593 33.4805 365.775 34.3582C364.957 35.2359 364.531 36.6212 364.471 38.5143C364.411 39.5726 364.411 40.545 364.471 41.4398C364.522 43.3587 364.957 44.7526 365.775 45.6131C366.584 46.4736 367.683 46.9038 369.064 46.9038C370.138 46.9038 371.007 46.6715 371.672 46.2154C372.336 45.7594 372.873 44.9677 373.282 43.8577C373.418 43.5824 373.563 43.3673 373.717 43.2296C373.87 43.0919 374.083 43.0231 374.356 43.0231H377.994C378.267 43.0231 378.514 43.1177 378.719 43.2984C378.923 43.4791 379.017 43.7201 378.991 44.0298C378.966 44.5289 378.83 45.0968 378.599 45.725C378.361 46.3531 377.994 46.9898 377.483 47.6438C376.972 48.2977 376.333 48.9001 375.557 49.4422C374.782 49.9843 373.853 50.4231 372.762 50.7587C371.672 51.0943 370.41 51.2577 368.979 51.2577L368.987 51.2405Z" fill="white"/>
</g>
<defs>
<clipPath id="clip0_3_102">
<rect width="379" height="74" fill="white"/>
</clipPath>
</defs>
</svg>
