<svg width="399" height="78" viewBox="0 0 399 78" fill="none" xmlns="http://www.w3.org/2000/svg">
<g clip-path="url(#clip0_1_46)">
<path d="M54.1497 41.7209C55.3698 46.9088 59.981 50.7907 65.4893 50.7907C71.9215 50.7907 77.1517 45.503 77.1517 39C77.1517 32.497 71.9215 27.2093 65.4893 27.2093C59.9899 27.2093 55.3698 31.0912 54.1497 36.2791H49.9064C49.6193 35.0456 49.1349 33.8847 48.489 32.8326L59.3799 21.8219C61.1562 22.9284 63.2465 23.5814 65.4803 23.5814C71.9126 23.5814 77.1427 18.2937 77.1427 11.7907C77.1427 5.28768 71.9215 6.04615e-06 65.4893 6.04615e-06C59.0569 6.04615e-06 53.8268 5.28768 53.8268 11.7907C53.8268 14.0581 54.4727 16.1714 55.5761 17.9763L44.6852 28.9779C43.6445 28.3249 42.4873 27.8351 41.2582 27.5358V23.2458C46.3897 22.0123 50.2294 17.3505 50.2294 11.7816C50.2294 5.27861 44.9992 -0.00906372 38.5669 -0.00906372C32.1346 -0.00906372 26.9044 5.27861 26.9044 11.7816C26.9044 17.3414 30.7441 22.0123 35.8755 23.2458V27.5358C34.6465 27.8261 33.4982 28.3158 32.4575 28.9688L21.5666 17.9581C22.67 16.1623 23.316 14.0491 23.316 11.7816C23.3249 5.28768 18.0948 6.04615e-06 11.6625 6.04615e-06C5.23017 6.04615e-06 0 5.28768 0 11.7907C0 18.2937 5.23017 23.5814 11.6625 23.5814C13.9053 23.5814 15.9955 22.9284 17.7718 21.8128L28.6628 32.8235C28.0168 33.8756 27.5324 35.0365 27.2453 36.2791H23.002C21.7819 31.0912 17.1707 27.2093 11.6625 27.2093C5.23017 27.2093 0 32.497 0 39C0 45.503 5.23017 50.7907 11.6625 50.7907C17.1618 50.7907 21.7819 46.9088 23.002 41.7209H27.2453C27.5414 42.9635 28.0258 44.1244 28.6717 45.1856L17.7897 56.1963C16.0045 55.0807 13.9142 54.4277 11.6714 54.4277C5.23914 54.4277 0.00897113 59.7154 0.00897113 66.2184C0.00897113 72.7214 5.23914 78.0091 11.6714 78.0091C18.1037 78.0091 23.3339 72.7214 23.3339 66.2184C23.3339 63.9509 22.688 61.8467 21.5935 60.0509L32.4845 49.0402C33.5251 49.6933 34.6734 50.183 35.8935 50.4733V54.7633C30.762 55.9967 26.9224 60.6586 26.9224 66.2274C26.9224 72.7305 32.1525 78.0181 38.5848 78.0181C45.0171 78.0181 50.2473 72.7305 50.2473 66.2274C50.2473 60.6677 46.4077 55.9967 41.2762 54.7633V50.4733C42.5052 50.183 43.6535 49.6842 44.6942 49.0312L55.5851 60.0419C54.4817 61.8377 53.8357 63.9509 53.8357 66.2184C53.8357 72.7214 59.0659 78.0091 65.4982 78.0091C71.9305 78.0091 77.1607 72.7214 77.1607 66.2184C77.1607 59.7154 71.9305 54.4277 65.4982 54.4277C63.2554 54.4277 61.1652 55.0807 59.3889 56.1963L48.4979 45.1856C49.1438 44.1335 49.6283 42.9726 49.9154 41.73H54.1587L54.1497 41.7209ZM65.4893 32.6512C68.9521 32.6512 71.769 35.4991 71.769 39C71.769 42.5009 68.9521 45.3488 65.4893 45.3488C62.0264 45.3488 59.2095 42.5009 59.2095 39.0091C59.2095 35.5081 62.0264 32.6693 65.4893 32.6693V32.6512ZM38.5759 45.3488C35.113 45.3488 32.2961 42.5009 32.2961 39.0091C32.2961 35.5081 35.113 32.6693 38.5759 32.6693C42.0387 32.6693 44.8556 35.5172 44.8556 39.0181C44.8556 42.5191 42.0387 45.367 38.5759 45.367V45.3488ZM65.4893 5.44187C68.9521 5.44187 71.769 8.28977 71.769 11.7907C71.769 15.2916 68.9521 18.1395 65.4893 18.1395C62.0264 18.1395 59.2095 15.2916 59.2095 11.7907C59.2095 8.28977 62.0264 5.44187 65.4893 5.44187ZM32.2961 11.7907C32.2961 8.28977 35.113 5.44187 38.5759 5.44187C42.0387 5.44187 44.8556 8.28977 44.8556 11.7907C44.8556 15.2916 42.0387 18.1395 38.5848 18.1395C35.122 18.1395 32.314 15.2916 32.314 11.7907H32.2961ZM5.38268 11.7907C5.38268 8.28977 8.19961 5.44187 11.6625 5.44187C15.1253 5.44187 17.9423 8.28977 17.9423 11.7907C17.9423 15.2916 15.1253 18.1395 11.6625 18.1395C8.19961 18.1395 5.38268 15.2916 5.38268 11.7907ZM11.6625 45.3488C8.19961 45.3488 5.38268 42.5009 5.38268 39C5.38268 35.4991 8.19961 32.6512 11.6625 32.6512C15.1253 32.6512 17.9423 35.4991 17.9423 39C17.9423 42.5009 15.1253 45.3488 11.6625 45.3488ZM11.6625 72.5581C8.19961 72.5581 5.38268 69.7102 5.38268 66.2093C5.38268 62.7084 8.19961 59.8605 11.6625 59.8605C15.1253 59.8605 17.9423 62.7084 17.9423 66.2093C17.9423 69.7102 15.1253 72.5581 11.6625 72.5581ZM44.8556 66.2093C44.8556 69.7102 42.0387 72.5581 38.5759 72.5581C35.113 72.5581 32.2961 69.7102 32.2961 66.2093C32.2961 62.7084 35.113 59.8605 38.5759 59.8605C42.0387 59.8605 44.8556 62.7084 44.8556 66.2093ZM71.769 66.2093C71.769 69.7102 68.9521 72.5581 65.4893 72.5581C62.0264 72.5581 59.2095 69.7102 59.2095 66.2093C59.2095 62.7084 62.0264 59.8605 65.4893 59.8605C68.9521 59.8605 71.769 62.7084 71.769 66.2093Z" fill="#64B769"/>
<path d="M105.052 54.0105C102.352 54.0105 100.1 53.6023 98.2787 52.8042C96.4665 51.997 95.085 50.9449 94.143 49.6388C93.2011 48.3328 92.6987 46.9633 92.6448 45.5212C92.6448 45.2581 92.7345 45.0405 92.905 44.8591C93.0755 44.6867 93.2997 44.5961 93.5599 44.5961H97.4354C97.8122 44.5961 98.0993 44.6777 98.2877 44.8409C98.4761 45.0042 98.6465 45.2037 98.7901 45.4395C98.9605 45.9928 99.3014 46.546 99.7948 47.0902C100.288 47.6344 100.961 48.0788 101.822 48.4326C102.684 48.7863 103.76 48.9586 105.07 48.9586C107.16 48.9586 108.721 48.6049 109.753 47.8974C110.784 47.19 111.296 46.2377 111.296 45.0405C111.296 44.1879 111.018 43.5077 110.47 42.9907C109.923 42.4737 109.071 42.0112 107.923 41.5849C106.774 41.1586 105.258 40.7142 103.374 40.2426C101.194 39.7165 99.3732 39.0726 97.9109 38.3288C96.4486 37.5851 95.3451 36.6328 94.6005 35.49C93.8649 34.3472 93.4881 32.8961 93.4881 31.1365C93.4881 29.377 93.9457 27.9258 94.8607 26.6016C95.7758 25.2774 97.0766 24.2435 98.7811 23.4726C100.477 22.7107 102.504 22.3298 104.855 22.3298C106.738 22.3298 108.407 22.5837 109.86 23.1007C111.314 23.6177 112.516 24.2888 113.476 25.1233C114.436 25.9577 115.162 26.8556 115.674 27.8079C116.185 28.7602 116.454 29.6944 116.481 30.6014C116.481 30.8372 116.4 31.0458 116.239 31.2363C116.077 31.4267 115.853 31.5265 115.566 31.5265H111.52C111.287 31.5265 111.054 31.4721 110.82 31.3542C110.587 31.2363 110.399 31.0186 110.255 30.6921C110.085 29.7851 109.511 29.0051 108.56 28.3612C107.6 27.7172 106.371 27.3907 104.864 27.3907C103.356 27.3907 102.038 27.6809 101.078 28.2705C100.118 28.86 99.6423 29.767 99.6423 31.0005C99.6423 31.8258 99.8845 32.5061 100.36 33.0502C100.835 33.5944 101.607 34.0661 102.666 34.4833C103.724 34.8914 105.124 35.3358 106.864 35.8074C109.331 36.3607 111.35 37.0137 112.92 37.7484C114.49 38.483 115.629 39.4172 116.356 40.5419C117.082 41.6756 117.441 43.0995 117.441 44.8319C117.441 46.7637 116.921 48.4144 115.898 49.784C114.866 51.1444 113.422 52.1965 111.565 52.9312C109.708 53.6658 107.546 54.0286 105.079 54.0286L105.052 54.0105Z" fill="#525252"/>
<path d="M128.476 54.0105C126.968 54.0105 125.605 53.7112 124.385 53.1035C123.165 52.5049 122.205 51.6977 121.487 50.6819C120.769 49.6661 120.419 48.5323 120.419 47.2716C120.419 45.2219 121.245 43.5802 122.904 42.3649C124.555 41.1495 126.717 40.3333 129.391 39.9251L135.356 39.0454V38.1202C135.356 36.8868 135.051 35.9344 134.441 35.2633C133.831 34.5921 132.791 34.2475 131.31 34.2475C130.261 34.2475 129.417 34.4651 128.763 34.8823C128.108 35.3086 127.623 35.8709 127.3 36.5784C127.067 36.9593 126.735 37.1498 126.296 37.1498H122.86C122.537 37.1498 122.303 37.0591 122.142 36.8868C121.98 36.7144 121.9 36.4786 121.9 36.1793C121.927 35.7077 122.124 35.1363 122.492 34.4651C122.851 33.794 123.407 33.1409 124.142 32.5061C124.878 31.8712 125.847 31.3361 127.04 30.9007C128.233 30.4563 129.669 30.2386 131.346 30.2386C133.176 30.2386 134.719 30.4654 135.984 30.9188C137.249 31.3723 138.254 31.98 139.008 32.7419C139.761 33.5037 140.317 34.4016 140.658 35.4265C141.008 36.4514 141.179 37.5398 141.179 38.6826V52.5049C141.179 52.7951 141.08 53.0491 140.874 53.2486C140.667 53.4572 140.425 53.557 140.129 53.557H136.603C136.28 53.557 136.029 53.4572 135.841 53.2486C135.652 53.04 135.554 52.7951 135.554 52.5049V50.7907C135.177 51.3168 134.666 51.8337 134.029 52.3326C133.392 52.8314 132.611 53.2395 131.696 53.5388C130.781 53.8472 129.705 54.0014 128.449 54.0014L128.476 54.0105ZM129.947 49.8293C130.961 49.8293 131.885 49.6116 132.71 49.1672C133.535 48.7228 134.19 48.0426 134.666 47.1175C135.141 46.1923 135.383 45.0223 135.383 43.6165V42.6914L131.032 43.3988C129.319 43.6619 128.045 44.0882 127.202 44.6777C126.358 45.2672 125.937 45.9837 125.937 46.8363C125.937 47.4802 126.134 48.0335 126.529 48.487C126.924 48.9405 127.417 49.2761 128.027 49.5028C128.637 49.7295 129.274 49.8293 129.938 49.8293H129.947Z" fill="#525252"/>
<path d="M159.291 54.0105C157.605 54.0105 156.205 53.7202 155.093 53.1307C153.971 52.5412 153.056 51.7975 152.33 50.8905V52.523C152.33 52.8133 152.231 53.0672 152.043 53.2668C151.854 53.4754 151.603 53.5751 151.28 53.5751H147.844C147.557 53.5751 147.306 53.4754 147.1 53.2668C146.893 53.0582 146.795 52.8133 146.795 52.523V23.3728C146.795 23.0826 146.893 22.8286 147.1 22.6291C147.306 22.4205 147.548 22.3207 147.844 22.3207H151.54C151.863 22.3207 152.114 22.4205 152.303 22.6291C152.491 22.8377 152.59 23.0826 152.59 23.3728V33.1409C153.317 32.2884 154.223 31.59 155.308 31.0458C156.394 30.5016 157.721 30.2295 159.291 30.2295C160.861 30.2295 162.162 30.4926 163.292 31.0186C164.423 31.5447 165.374 32.2884 166.145 33.2407C166.917 34.193 167.5 35.2995 167.913 36.5602C168.316 37.8209 168.541 39.1905 168.567 40.6507C168.594 41.1768 168.612 41.6575 168.612 42.0837C168.612 42.51 168.594 42.9907 168.567 43.5168C168.505 45.0405 168.28 46.4463 167.868 47.7161C167.464 48.9949 166.881 50.1014 166.127 51.0356C165.374 51.9788 164.432 52.7044 163.301 53.2123C162.171 53.7293 160.834 53.9833 159.3 53.9833L159.291 54.0105ZM157.686 49.3033C158.932 49.3033 159.901 49.0312 160.601 48.487C161.301 47.9428 161.803 47.2354 162.126 46.3556C162.449 45.4758 162.638 44.5054 162.691 43.4533C162.718 42.5735 162.718 41.6937 162.691 40.814C162.629 39.7528 162.44 38.7914 162.126 37.9116C161.803 37.0319 161.301 36.3244 160.601 35.7802C159.901 35.2361 158.932 34.964 157.686 34.964C156.528 34.964 155.577 35.227 154.86 35.753C154.133 36.2791 153.586 36.9502 153.209 37.7575C152.832 38.5647 152.626 39.4081 152.599 40.2879C152.572 40.814 152.554 41.3854 152.554 41.984C152.554 42.5826 152.572 43.154 152.599 43.68C152.653 44.587 152.85 45.4758 153.191 46.3465C153.523 47.2081 154.061 47.9247 154.806 48.4779C155.541 49.0402 156.51 49.3123 157.703 49.3123L157.686 49.3033Z" fill="#525252"/>
<path d="M174.533 53.5661C174.246 53.5661 173.995 53.4663 173.789 53.2577C173.582 53.0491 173.484 52.8042 173.484 52.514V23.3728C173.484 23.0826 173.582 22.8286 173.789 22.6291C173.995 22.4205 174.237 22.3207 174.533 22.3207H178.149C178.436 22.3207 178.687 22.4205 178.893 22.6291C179.1 22.8377 179.198 23.0826 179.198 23.3728V52.514C179.198 52.8042 179.1 53.0582 178.893 53.2577C178.687 53.4663 178.445 53.5661 178.149 53.5661H174.533Z" fill="#525252"/>
<path d="M194.727 54.0105C191.507 54.0105 188.95 53.0672 187.066 51.1898C185.182 49.3123 184.159 46.6458 184.016 43.1812C183.989 42.8909 183.971 42.51 183.971 42.0565C183.971 41.603 183.989 41.2402 184.016 40.9772C184.132 38.7461 184.635 36.8323 185.514 35.2361C186.402 33.6398 187.622 32.4063 189.192 31.5356C190.762 30.674 192.601 30.2386 194.718 30.2386C197.069 30.2386 199.042 30.7284 200.639 31.717C202.236 32.6965 203.438 34.0661 204.255 35.8075C205.071 37.5579 205.475 39.5714 205.475 41.857V42.7821C205.475 43.0723 205.376 43.3263 205.17 43.5258C204.963 43.7344 204.703 43.8342 204.389 43.8342H189.937V44.1879C189.964 45.2128 190.161 46.1651 190.529 47.0268C190.888 47.8975 191.426 48.5868 192.144 49.1219C192.852 49.6479 193.705 49.9109 194.691 49.9109C195.508 49.9109 196.19 49.784 196.737 49.5391C197.284 49.2942 197.742 49.004 198.083 48.6775C198.432 48.3509 198.675 48.0879 198.827 47.8884C199.087 47.5347 199.303 47.3261 199.455 47.2535C199.617 47.1809 199.85 47.1447 200.173 47.1447H203.914C204.201 47.1447 204.443 47.2354 204.631 47.4077C204.82 47.58 204.901 47.8068 204.874 48.0698C204.847 48.5414 204.605 49.1128 204.156 49.784C203.707 50.4551 203.062 51.1172 202.218 51.7612C201.375 52.4051 200.325 52.9402 199.06 53.3665C197.795 53.7928 196.351 54.0014 194.727 54.0014V54.0105ZM189.937 40.1428H199.554V40.0068C199.554 38.864 199.365 37.8572 198.989 36.9956C198.612 36.134 198.056 35.4537 197.338 34.973C196.62 34.4923 195.741 34.2475 194.727 34.2475C193.714 34.2475 192.843 34.4923 192.117 34.973C191.39 35.4537 190.843 36.134 190.484 36.9956C190.125 37.8572 189.937 38.864 189.937 40.0068V40.1428Z" fill="#525252"/>
<path d="M221.632 53.5661C221.345 53.5661 221.094 53.4663 220.887 53.2577C220.681 53.0491 220.582 52.8042 220.582 52.514V23.8626C220.582 23.5361 220.681 23.273 220.887 23.0735C221.094 22.8649 221.336 22.7651 221.632 22.7651H234.254C236.605 22.7651 238.524 23.1279 240.005 23.8444C241.485 24.561 242.579 25.5496 243.288 26.8193C243.997 28.08 244.356 29.5493 244.356 31.2182C244.356 32.3337 244.158 33.3133 243.764 34.1477C243.369 34.9821 242.893 35.6623 242.328 36.1975C241.763 36.7235 241.207 37.1407 240.651 37.431C241.781 37.957 242.786 38.8368 243.656 40.0703C244.526 41.3037 244.966 42.773 244.966 44.4691C244.966 46.1651 244.571 47.7977 243.79 49.1763C243.01 50.5549 241.844 51.6342 240.31 52.4142C238.767 53.1942 236.874 53.5842 234.604 53.5842H221.632V53.5661ZM226.638 35.3903H233.474C235.008 35.3903 236.165 35.0184 236.937 34.2656C237.708 33.5128 238.094 32.5423 238.094 31.3361C238.094 30.1298 237.708 29.1321 236.937 28.4337C236.165 27.7263 235.017 27.3726 233.474 27.3726H226.638V35.3812V35.3903ZM226.638 48.9042H233.904C235.474 48.9042 236.658 48.4689 237.475 47.6072C238.291 46.7456 238.695 45.6935 238.695 44.46C238.695 43.2265 238.282 42.1019 237.457 41.2493C236.632 40.3968 235.447 39.9705 233.904 39.9705H226.638V48.9042Z" fill="#525252"/>
<path d="M250.806 26.9009C250.519 26.9009 250.268 26.8012 250.061 26.5926C249.855 26.384 249.756 26.1391 249.756 25.8489V22.6835C249.756 22.3933 249.855 22.1393 250.061 21.9398C250.268 21.7312 250.51 21.6314 250.806 21.6314H254.771C255.094 21.6314 255.354 21.7312 255.552 21.9398C255.758 22.1484 255.857 22.3933 255.857 22.6835V25.8489C255.857 26.1391 255.758 26.393 255.552 26.5926C255.345 26.8012 255.085 26.9009 254.771 26.9009H250.806ZM250.976 53.5661C250.689 53.5661 250.438 53.4663 250.241 53.2577C250.034 53.0491 249.936 52.8042 249.936 52.514V31.7351C249.936 31.4449 250.034 31.1909 250.241 30.9914C250.447 30.7828 250.689 30.683 250.976 30.683H254.592C254.915 30.683 255.166 30.7828 255.354 30.9914C255.543 31.2 255.641 31.4449 255.641 31.7351V52.514C255.641 52.8042 255.543 53.0582 255.354 53.2577C255.166 53.4663 254.915 53.5661 254.592 53.5661H250.976Z" fill="#525252"/>
<path d="M271.439 54.0105C269.116 54.0105 267.169 53.6023 265.581 52.777C263.993 51.9516 262.791 50.7998 261.966 49.3033C261.141 47.8068 260.665 46.0654 260.549 44.07C260.522 43.544 260.504 42.9 260.504 42.1291C260.504 41.3582 260.522 40.7233 260.549 40.1882C260.665 38.1656 261.15 36.4061 262.011 34.9277C262.863 33.4493 264.083 32.2975 265.671 31.4721C267.25 30.6468 269.179 30.2386 271.439 30.2386C273.7 30.2386 275.629 30.6468 277.208 31.4721C278.787 32.2975 280.007 33.4493 280.868 34.9277C281.72 36.4061 282.214 38.1656 282.33 40.1882C282.357 40.7142 282.375 41.3582 282.375 42.1291C282.375 42.9 282.357 43.5349 282.33 44.07C282.214 46.0654 281.738 47.8068 280.913 49.3033C280.088 50.7998 278.886 51.9607 277.298 52.777C275.71 53.5933 273.763 54.0105 271.439 54.0105ZM271.439 49.657C272.974 49.657 274.167 49.1672 275.01 48.1786C275.853 47.1991 276.32 45.7479 276.401 43.8433C276.427 43.3988 276.445 42.8275 276.445 42.1291C276.445 41.4307 276.427 40.8502 276.401 40.4149C276.311 38.5102 275.844 37.0591 275.01 36.0795C274.167 35.1 272.974 34.6012 271.439 34.6012C269.905 34.6012 268.712 35.0909 267.869 36.0795C267.026 37.0591 266.559 38.5102 266.478 40.4149C266.452 40.8593 266.434 41.4307 266.434 42.1291C266.434 42.8275 266.452 43.4079 266.478 43.8433C266.568 45.7479 267.026 47.1991 267.869 48.1786C268.712 49.1582 269.896 49.657 271.439 49.657Z" fill="#525252"/>
<path d="M299.474 54.0105C296.774 54.0105 294.486 53.5298 292.62 52.5775C290.745 51.6251 289.319 50.2556 288.332 48.487C287.345 46.7093 286.789 44.5779 286.681 42.0837C286.655 40.8775 286.637 39.5896 286.637 38.2109C286.637 36.8323 286.655 35.5082 286.681 34.2475C286.798 31.7805 287.354 29.6582 288.359 27.8623C289.364 26.0756 290.799 24.697 292.665 23.7447C294.54 22.7923 296.81 22.3116 299.474 22.3116C301.448 22.3116 303.215 22.5747 304.785 23.1007C306.355 23.6268 307.692 24.3523 308.786 25.2775C309.89 26.2026 310.742 27.2819 311.352 28.5154C311.962 29.7489 312.285 31.0821 312.312 32.5242C312.339 32.7872 312.258 33.0049 312.07 33.1863C311.881 33.3586 311.657 33.4493 311.397 33.4493H307.261C306.938 33.4493 306.678 33.3677 306.481 33.2044C306.274 33.0412 306.131 32.7691 306.041 32.3882C305.575 30.4472 304.776 29.1321 303.646 28.4247C302.515 27.7172 301.107 27.3635 299.42 27.3635C297.474 27.3635 295.922 27.9168 294.764 29.0142C293.607 30.1116 292.979 31.9256 292.889 34.447C292.8 36.8505 292.8 39.3175 292.889 41.8389C292.979 44.3603 293.598 46.1742 294.764 47.2716C295.922 48.3691 297.474 48.9223 299.42 48.9223C301.107 48.9223 302.515 48.5596 303.664 47.843C304.812 47.1265 305.602 45.8114 306.032 43.9068C306.122 43.4986 306.265 43.2175 306.472 43.0723C306.678 42.9272 306.938 42.8547 307.252 42.8547H311.388C311.648 42.8547 311.872 42.9454 312.061 43.1177C312.249 43.29 312.33 43.5168 312.303 43.7798C312.276 45.2219 311.953 46.5551 311.343 47.7886C310.733 49.0221 309.881 50.1014 308.777 51.0265C307.674 51.9516 306.337 52.6772 304.776 53.2033C303.215 53.7293 301.439 53.9923 299.465 53.9923L299.474 54.0105Z" fill="#525252"/>
<path d="M318.062 53.5661C317.775 53.5661 317.524 53.4663 317.318 53.2577C317.111 53.0491 317.013 52.8042 317.013 52.514V23.3728C317.013 23.0826 317.111 22.8286 317.318 22.6291C317.524 22.4205 317.766 22.3207 318.062 22.3207H321.678C321.965 22.3207 322.216 22.4205 322.422 22.6291C322.629 22.8377 322.727 23.0826 322.727 23.3728V52.514C322.727 52.8042 322.629 53.0582 322.422 53.2577C322.216 53.4663 321.974 53.5661 321.678 53.5661H318.062Z" fill="#525252"/>
<path d="M329.384 26.9009C329.097 26.9009 328.846 26.8012 328.639 26.5926C328.433 26.384 328.334 26.1391 328.334 25.8489V22.6835C328.334 22.3933 328.433 22.1393 328.639 21.9398C328.846 21.7312 329.088 21.6314 329.384 21.6314H333.349C333.672 21.6314 333.932 21.7312 334.13 21.9398C334.336 22.1484 334.435 22.3933 334.435 22.6835V25.8489C334.435 26.1391 334.336 26.393 334.13 26.5926C333.923 26.8012 333.663 26.9009 333.349 26.9009H329.384ZM329.554 53.5661C329.267 53.5661 329.016 53.4663 328.819 53.2577C328.612 53.0491 328.514 52.8042 328.514 52.514V31.7351C328.514 31.4449 328.612 31.1909 328.819 30.9914C329.025 30.7828 329.267 30.683 329.554 30.683H333.17C333.493 30.683 333.744 30.7828 333.932 30.9914C334.121 31.2 334.219 31.4449 334.219 31.7351V52.514C334.219 52.8042 334.121 53.0582 333.932 53.2577C333.744 53.4663 333.493 53.5661 333.17 53.5661H329.554Z" fill="#525252"/>
<path d="M341.046 53.5661C340.759 53.5661 340.508 53.4663 340.311 53.2577C340.105 53.0491 340.006 52.8042 340.006 52.514V31.7351C340.006 31.4449 340.105 31.1909 340.311 30.9914C340.517 30.7828 340.759 30.683 341.046 30.683H344.617C344.904 30.683 345.155 30.7828 345.362 30.9914C345.568 31.2 345.667 31.4449 345.667 31.7351V33.54C346.42 32.5968 347.389 31.8168 348.564 31.1819C349.74 30.547 351.202 30.2386 352.942 30.2386C354.683 30.2386 356.253 30.6468 357.553 31.4449C358.863 32.2521 359.868 33.3858 360.577 34.8551C361.285 36.3244 361.644 38.084 361.644 40.1337V52.5049C361.644 52.7951 361.546 53.0491 361.339 53.2486C361.133 53.4572 360.891 53.557 360.595 53.557H356.764C356.477 53.557 356.226 53.4572 356.019 53.2486C355.813 53.04 355.714 52.7951 355.714 52.5049V40.3968C355.714 38.6916 355.302 37.3584 354.476 36.3879C353.651 35.4175 352.449 34.9368 350.888 34.9368C349.327 34.9368 348.17 35.4175 347.272 36.3879C346.375 37.3584 345.927 38.6916 345.927 40.3968V52.5049C345.927 52.7951 345.828 53.0491 345.622 53.2486C345.415 53.4572 345.173 53.557 344.877 53.557H341.046V53.5661Z" fill="#525252"/>
<path d="M368.041 26.9009C367.754 26.9009 367.502 26.8012 367.296 26.5926C367.09 26.384 366.991 26.1391 366.991 25.8489V22.6835C366.991 22.3933 367.09 22.1393 367.296 21.9398C367.502 21.7312 367.745 21.6314 368.041 21.6314H372.006C372.329 21.6314 372.589 21.7312 372.786 21.9398C372.993 22.1484 373.091 22.3933 373.091 22.6835V25.8489C373.091 26.1391 372.993 26.393 372.786 26.5926C372.58 26.8012 372.32 26.9009 372.006 26.9009H368.041ZM368.211 53.5661C367.924 53.5661 367.673 53.4663 367.475 53.2577C367.269 53.0491 367.17 52.8042 367.17 52.514V31.7351C367.17 31.4449 367.269 31.1909 367.475 30.9914C367.682 30.7828 367.924 30.683 368.211 30.683H371.826C372.149 30.683 372.401 30.7828 372.589 30.9914C372.777 31.2 372.876 31.4449 372.876 31.7351V52.514C372.876 52.8042 372.777 53.0582 372.589 53.2577C372.401 53.4663 372.149 53.5661 371.826 53.5661H368.211Z" fill="#525252"/>
<path d="M388.459 54.0105C386.369 54.0105 384.53 53.6114 382.951 52.8223C381.372 52.0333 380.134 50.8814 379.255 49.3668C378.366 47.8521 377.882 46.0291 377.792 43.8886C377.765 43.4533 377.747 42.8728 377.747 42.1472C377.747 41.4216 377.765 40.8321 377.792 40.3605C377.882 38.22 378.366 36.3879 379.255 34.8823C380.143 33.3677 381.372 32.2158 382.951 31.4268C384.53 30.6377 386.369 30.2386 388.459 30.2386C390.316 30.2386 391.895 30.4926 393.205 31.0095C394.514 31.5265 395.582 32.1795 396.425 32.9868C397.269 33.794 397.897 34.6284 398.318 35.4991C398.74 36.3607 398.964 37.1498 398.991 37.8572C399.018 38.1837 398.928 38.4377 398.704 38.6282C398.489 38.8186 398.228 38.9184 397.941 38.9184H394.111C393.824 38.9184 393.599 38.8458 393.438 38.7007C393.276 38.5556 393.124 38.3379 392.98 38.0386C392.541 36.8686 391.976 36.0342 391.258 35.5535C390.549 35.0728 389.643 34.8279 388.54 34.8279C387.086 34.8279 385.938 35.2905 385.077 36.2156C384.216 37.1407 383.767 38.6009 383.704 40.5963C383.641 41.7119 383.641 42.7368 383.704 43.68C383.758 45.7026 384.216 47.1719 385.077 48.0788C385.929 48.9858 387.086 49.4393 388.54 49.4393C389.67 49.4393 390.585 49.1944 391.285 48.7137C391.985 48.233 392.55 47.3986 392.98 46.2286C393.124 45.9384 393.276 45.7116 393.438 45.5665C393.599 45.4214 393.824 45.3488 394.111 45.3488H397.941C398.228 45.3488 398.489 45.4486 398.704 45.6391C398.919 45.8295 399.018 46.0835 398.991 46.41C398.964 46.9361 398.821 47.5347 398.578 48.1968C398.327 48.8588 397.941 49.53 397.403 50.2193C396.865 50.9086 396.192 51.5435 395.376 52.1149C394.559 52.6863 393.581 53.1488 392.433 53.5026C391.285 53.8563 389.957 54.0286 388.45 54.0286L388.459 54.0105Z" fill="#525252"/>
</g>
<defs>
<clipPath id="clip0_1_46">
<rect width="399" height="78" fill="white"/>
</clipPath>
</defs>
</svg>
